<svg xmlns="http://www.w3.org/2000/svg" version="1.1" xmlns:xlink="http://www.w3.org/1999/xlink" xmlns:svgjs="http://svgjs.dev/svgjs" width="2000" height="575" viewBox="0 0 2000 575"><g transform="matrix(1,0,0,1,-1.2121212121212466,-0.3180546091584233)"><svg viewBox="0 0 396 114" data-background-color="#ffffff" preserveAspectRatio="xMidYMid meet" height="575" width="2000" xmlns="http://www.w3.org/2000/svg" xmlns:xlink="http://www.w3.org/1999/xlink"><g id="tight-bounds" transform="matrix(1,0,0,1,0.2400000000000091,0.06305778338096957)"><svg viewBox="0 0 395.52 113.87388443323806" height="113.87388443323806" width="395.52"><g><svg viewBox="0 0 603.3475422662038 173.70936564800746" height="113.87388443323806" width="395.52"><g transform="matrix(1,0,0,1,0,50.72418182199972)"><svg viewBox="0 0 395.52000000000004 72.26100200400802" height="72.26100200400802" width="395.52000000000004"><g id="textblocktransform"><svg viewBox="0 0 395.52000000000004 72.26100200400802" height="72.26100200400802" width="395.52000000000004" id="textblock"><g><svg viewBox="0 0 395.52000000000004 72.26100200400802" height="72.26100200400802" width="395.52000000000004"><g transform="matrix(1,0,0,1,0,0)"><svg width="395.52000000000004" viewBox="2.85 -27.05 149.69 27.35" height="72.26100200400802" data-palette-color="#ed2647"><path d="M13.5 0.3L13.5 0.3Q11.25 0.3 9.3-0.3 7.35-0.9 5.9-2.4 4.45-3.9 3.65-6.55 2.85-9.2 2.85-13.3L2.85-13.3Q2.85-17.45 3.6-20.13 4.35-22.8 5.75-24.3 7.15-25.8 9.15-26.4 11.15-27 13.6-27L13.6-27Q15.6-27 17.95-26.83 20.3-26.65 22.45-26.3L22.45-26.3 22.45-23.95 14.65-23.95Q12.1-23.95 10.35-23.1 8.6-22.25 7.7-19.93 6.8-17.6 6.8-13.2L6.8-13.2Q6.8-8.95 7.75-6.7 8.7-4.45 10.45-3.63 12.2-2.8 14.7-2.8L14.7-2.8 22.85-2.8 22.85-0.5Q21.7-0.3 20.18-0.1 18.65 0.1 16.95 0.2 15.25 0.3 13.5 0.3ZM38.9 0.3L38.9 0.3Q36 0.3 33.82-0.3 31.65-0.9 30.2-2.4 28.75-3.9 28.05-6.58 27.35-9.25 27.35-13.4L27.35-13.4Q27.35-17.6 28.05-20.28 28.75-22.95 30.2-24.43 31.65-25.9 33.82-26.48 36-27.05 38.9-27.05L38.9-27.05Q41.8-27.05 43.97-26.45 46.15-25.85 47.6-24.38 49.05-22.9 49.77-20.23 50.5-17.55 50.5-13.4L50.5-13.4Q50.5-9.2 49.77-6.53 49.05-3.85 47.62-2.38 46.2-0.9 44-0.3 41.8 0.3 38.9 0.3ZM38.9-2.95L38.9-2.95Q40.75-2.95 42.17-3.3 43.6-3.65 44.55-4.7 45.5-5.75 46-7.85 46.5-9.95 46.5-13.4L46.5-13.4Q46.5-16.9 46-18.95 45.5-21 44.55-22.05 43.6-23.1 42.17-23.45 40.75-23.8 38.9-23.8L38.9-23.8Q37-23.8 35.6-23.45 34.2-23.1 33.25-22.05 32.3-21 31.8-18.95 31.3-16.9 31.3-13.4L31.3-13.4Q31.3-9.95 31.8-7.85 32.3-5.75 33.25-4.7 34.2-3.65 35.6-3.3 37-2.95 38.9-2.95ZM65.09 0.3L65.09 0.3Q61.24 0.3 59.17-1.7 57.09-3.7 57.09-7.9L57.09-7.9 57.09-26.7 61.05-26.7 61.05-8.9Q61.05-5.55 62.57-4.38 64.09-3.2 66.84-3.2L66.84-3.2Q69.19-3.2 71.14-3.88 73.09-4.55 75.14-5.75L75.14-5.75 75.14-26.7 79.09-26.7 79.09 0 76 0 75.14-2.95Q73.09-1.65 70.52-0.68 67.94 0.3 65.09 0.3ZM90.49 0L86.54 0 86.54-26.7 89.54-26.7 90.49-22.05Q92.29-24.2 94.52-25.6 96.74-27 99.64-27L99.64-27Q100.34-27 100.97-26.95 101.59-26.9 102.14-26.75L102.14-26.75 102.14-22.7Q101.49-22.8 100.74-22.88 99.99-22.95 99.24-22.95L99.24-22.95Q97.39-22.95 95.94-22.5 94.49-22.05 93.19-21.15 91.89-20.25 90.49-18.95L90.49-18.95 90.49 0ZM116.34 0.3L116.34 0.3Q115.34 0.3 113.89 0.25 112.44 0.2 110.87 0.1 109.29 0 108.02-0.13 106.74-0.25 106.04-0.4L106.04-0.4 106.04-2.8 116.99-2.8Q118.64-2.8 119.84-3.05 121.04-3.3 121.72-4.15 122.39-5 122.39-6.7L122.39-6.7 122.39-7.9Q122.39-9.65 121.24-10.63 120.09-11.6 117.54-11.6L117.54-11.6 113.79-11.6Q111.44-11.6 109.62-12.2 107.79-12.8 106.79-14.25 105.79-15.7 105.79-18.25L105.79-18.25 105.79-19.65Q105.79-22.15 106.77-23.75 107.74-25.35 109.81-26.15 111.89-26.95 115.19-26.95L115.19-26.95Q116.59-26.95 118.42-26.85 120.24-26.75 121.99-26.58 123.74-26.4 124.84-26.2L124.84-26.2 124.84-23.8 114.54-23.8Q111.99-23.8 110.62-22.95 109.24-22.1 109.24-19.65L109.24-19.65 109.24-18.55Q109.24-17 109.89-16.23 110.54-15.45 111.72-15.2 112.89-14.95 114.44-14.95L114.44-14.95 118.24-14.95Q121.89-14.95 123.89-13.25 125.89-11.55 125.89-8.35L125.89-8.35 125.89-6.5Q125.89-3.8 124.67-2.33 123.44-0.85 121.31-0.28 119.19 0.3 116.34 0.3ZM142.34 0.3L142.34 0.3Q138.14 0.3 135.71-0.95 133.29-2.2 132.24-5.2 131.19-8.2 131.19-13.4L131.19-13.4Q131.19-18.7 132.26-21.68 133.34-24.65 135.79-25.85 138.24-27.05 142.39-27.05L142.39-27.05Q145.94-27.05 148.16-26.25 150.39-25.45 151.46-23.53 152.54-21.6 152.54-18.2L152.54-18.2Q152.54-15.85 151.61-14.43 150.69-13 148.96-12.38 147.24-11.75 144.89-11.75L144.89-11.75 135.14-11.75Q135.19-8.5 135.84-6.53 136.49-4.55 138.21-3.68 139.94-2.8 143.29-2.8L143.29-2.8 151.89-2.8 151.89-0.4Q149.59-0.1 147.39 0.1 145.19 0.3 142.34 0.3ZM135.09-14.35L135.09-14.35 144.59-14.35Q146.84-14.35 147.91-15.18 148.99-16 148.99-18.15L148.99-18.15Q148.99-20.45 148.31-21.73 147.64-23 146.21-23.53 144.79-24.05 142.39-24.05L142.39-24.05Q139.59-24.05 137.99-23.23 136.39-22.4 135.74-20.3 135.09-18.2 135.09-14.35Z" opacity="1" transform="matrix(1,0,0,1,0,0)" fill="#ed2647" class="wordmark-text-0" data-fill-palette-color="primary" id="text-0"></path></svg></g></svg></g></svg></g></svg></g><g transform="matrix(1,0,0,1,429.63817661819644,0)"><svg viewBox="0 0 173.70936564800746 173.70936564800746" height="173.70936564800746" width="173.70936564800746"><g><svg></svg></g><g id="icon-0"><svg viewBox="0 0 173.70936564800746 173.70936564800746" height="173.70936564800746" width="173.70936564800746"><g><path d="M0 86.855c0-47.969 38.886-86.855 86.855-86.855 47.969 0 86.855 38.886 86.854 86.855 0 47.969-38.886 86.855-86.854 86.854-47.969 0-86.855-38.886-86.855-86.854zM86.855 167.193c44.37 0 80.338-35.969 80.338-80.338 0-44.37-35.969-80.338-80.338-80.338-44.37 0-80.338 35.969-80.338 80.338 0 44.37 35.969 80.338 80.338 80.338z" data-fill-palette-color="accent" fill="#ed2647" stroke="transparent"></path><ellipse rx="85.98613599576369" ry="85.98613599576369" cx="86.85468282400373" cy="86.85468282400373" fill="#ed2647" stroke="transparent" stroke-width="0" fill-opacity="1" data-fill-palette-color="accent"></ellipse></g><g transform="matrix(1,0,0,1,36.73555809388438,38.707838465208525)"><svg viewBox="0 0 100.2382494602387 96.29368871759041" height="96.29368871759041" width="100.2382494602387"><g><svg xmlns="http://www.w3.org/2000/svg" xmlns:xlink="http://www.w3.org/1999/xlink" version="1.1" x="0" y="0" viewBox="7.6 11 86.4 83" style="enable-background:new 0 0 100 100;" xml:space="preserve" height="96.29368871759041" width="100.2382494602387" class="icon-cg-0" data-fill-palette-color="quaternary" id="cg-0"><g fill="#ffffff" data-fill-palette-color="quaternary"><g fill="#ffffff" data-fill-palette-color="quaternary"><g fill="#ffffff" data-fill-palette-color="quaternary"><path d="M86 56.1v-7.1c4.5-0.5 8-4.3 8-8.9 0-5-4-9-9-9-3 0-5.6 1.5-7.3 3.7L58.3 23.6c0.5-1.1 0.7-2.3 0.7-3.6 0-5-4-9-9-9s-9 4-9 9c0 0.4 0 0.7 0.1 1.1L25 25 7.6 20.6 12.5 40l13-13 16-3.8c1.3 3.5 4.6 5.9 8.5 5.9 3 0 5.6-1.5 7.3-3.7l19.5 11.1C76.3 37.5 76 38.7 76 40c0 4.6 3.5 8.4 8 8.9v7.1c-4.5 0.5-8 4.3-8 8.9 0 1.5 0.4 2.9 1 4.1L61.9 79.2c-1.7-2-4.1-3.2-6.9-3.2-3.2 0-5.9 1.6-7.5 4.1l-14-7c0.4-1 0.6-2 0.6-3.1 0-5-4-9-9-9s-9 4-9 9 4 9 9 9c3.2 0 5.9-1.6 7.5-4.1l14 7c-0.4 1-0.6 2-0.6 3.1 0 5 4 9 9 9s9-4 9-9c0-1.5-0.4-2.9-1-4.1l15.1-10.1c1.7 2 4.1 3.2 6.9 3.2 5 0 9-4 9-9C94 60.4 90.5 56.6 86 56.1zM13.5 36l-3.2-12.7L23 26.5 13.5 36zM56.5 22.6c-0.2 0.6-0.6 1.2-1 1.7C54.2 25.9 52.2 27 50 27c-2.9 0-5.5-1.8-6.5-4.4-0.2-0.6-0.4-1.3-0.5-1.9 0-0.2 0-0.4 0-0.6 0-3.9 3.1-7 7-7s7 3.1 7 7C57 20.9 56.8 21.8 56.5 22.6zM31.6 72.2c-0.2 0.6-0.5 1.2-0.9 1.8-1.3 1.8-3.4 3-5.7 3-3.9 0-7-3.1-7-7s3.1-7 7-7 7 3.1 7 7C32 70.8 31.9 71.5 31.6 72.2zM55 92c-3.9 0-7-3.1-7-7 0-0.8 0.1-1.5 0.4-2.2 0.2-0.6 0.5-1.2 0.9-1.8 1.3-1.8 3.4-3 5.7-3 2.1 0 3.9 0.9 5.2 2.3 0.4 0.5 0.8 1.1 1.1 1.7 0.4 0.9 0.7 1.9 0.7 3C62 88.9 58.9 92 55 92zM78 40c0-0.9 0.2-1.8 0.5-2.6 0.2-0.6 0.6-1.2 1-1.7 1.3-1.6 3.3-2.7 5.5-2.7 3.9 0 7 3.1 7 7 0 3.5-2.6 6.4-6 6.9-0.3 0-0.7 0.1-1 0.1s-0.7 0-1-0.1C80.6 46.4 78 43.5 78 40zM85 72c-2.1 0-3.9-0.9-5.2-2.3-0.4-0.5-0.8-1.1-1.1-1.7-0.4-0.9-0.7-1.9-0.7-3 0-3.5 2.6-6.4 6-6.9 0.3 0 0.7-0.1 1-0.1s0.7 0 1 0.1c3.4 0.5 6 3.4 6 6.9C92 68.9 88.9 72 85 72z" fill="#ffffff" data-fill-palette-color="quaternary"></path><path d="M25 65c-2.8 0-5 2.2-5 5s2.2 5 5 5 5-2.2 5-5S27.8 65 25 65zM25 73c-1.7 0-3-1.3-3-3s1.3-3 3-3 3 1.3 3 3S26.7 73 25 73z" fill="#ffffff" data-fill-palette-color="quaternary"></path></g></g></g></svg></g></svg></g></svg></g></svg></g></svg></g><defs></defs></svg><rect width="395.52" height="113.87388443323806" fill="none" stroke="none" visibility="hidden"></rect></g></svg></g></svg>