<svg xmlns="http://www.w3.org/2000/svg" version="1.1" xmlns:xlink="http://www.w3.org/1999/xlink" xmlns:svgjs="http://svgjs.dev/svgjs" width="128" height="128" viewBox="0 0 128 128"><g transform="matrix(0.8046875,0,0,0.8046875,12.760752631578946,14.363063394297725)"><svg viewBox="0 0 95 92" data-background-color="#ffffff" preserveAspectRatio="xMidYMid meet" height="123" width="128" xmlns="http://www.w3.org/2000/svg" xmlns:xlink="http://www.w3.org/1999/xlink"><g id="tight-bounds" transform="matrix(1,0,0,1,-0.24049999999999727,0.138177083333332)"><svg viewBox="0 0 95.481 91.72364583333332" height="91.72364583333332" width="95.481"><g><svg viewBox="0 0 95.481 91.72364583333332" height="91.72364583333332" width="95.481"><g><svg viewBox="0 0 95.481 91.72364583333332" height="91.72364583333332" width="95.481"><g id="textblocktransform"><svg viewBox="0 0 95.481 91.72364583333332" height="91.72364583333332" width="95.481" id="textblock"><g><svg viewBox="0 0 95.481 91.72364583333332" height="91.72364583333332" width="95.481"><g><svg viewBox="0 0 95.481 91.72364583333332" height="91.72364583333332" width="95.481"><g><svg xmlns="http://www.w3.org/2000/svg" xmlns:xlink="http://www.w3.org/1999/xlink" version="1.1" x="0" y="0" viewBox="7.6 11 86.4 83" style="enable-background:new 0 0 100 100;" xml:space="preserve" height="91.72364583333332" width="95.481" class="icon-icon-0" data-fill-palette-color="accent" id="icon-0"><g fill="#ed2647" data-fill-palette-color="accent"><g fill="#ed2647" data-fill-palette-color="accent"><g fill="#ed2647" data-fill-palette-color="accent"><path d="M86 56.1v-7.1c4.5-0.5 8-4.3 8-8.9 0-5-4-9-9-9-3 0-5.6 1.5-7.3 3.7L58.3 23.6c0.5-1.1 0.7-2.3 0.7-3.6 0-5-4-9-9-9s-9 4-9 9c0 0.4 0 0.7 0.1 1.1L25 25 7.6 20.6 12.5 40l13-13 16-3.8c1.3 3.5 4.6 5.9 8.5 5.9 3 0 5.6-1.5 7.3-3.7l19.5 11.1C76.3 37.5 76 38.7 76 40c0 4.6 3.5 8.4 8 8.9v7.1c-4.5 0.5-8 4.3-8 8.9 0 1.5 0.4 2.9 1 4.1L61.9 79.2c-1.7-2-4.1-3.2-6.9-3.2-3.2 0-5.9 1.6-7.5 4.1l-14-7c0.4-1 0.6-2 0.6-3.1 0-5-4-9-9-9s-9 4-9 9 4 9 9 9c3.2 0 5.9-1.6 7.5-4.1l14 7c-0.4 1-0.6 2-0.6 3.1 0 5 4 9 9 9s9-4 9-9c0-1.5-0.4-2.9-1-4.1l15.1-10.1c1.7 2 4.1 3.2 6.9 3.2 5 0 9-4 9-9C94 60.4 90.5 56.6 86 56.1zM13.5 36l-3.2-12.7L23 26.5 13.5 36zM56.5 22.6c-0.2 0.6-0.6 1.2-1 1.7C54.2 25.9 52.2 27 50 27c-2.9 0-5.5-1.8-6.5-4.4-0.2-0.6-0.4-1.3-0.5-1.9 0-0.2 0-0.4 0-0.6 0-3.9 3.1-7 7-7s7 3.1 7 7C57 20.9 56.8 21.8 56.5 22.6zM31.6 72.2c-0.2 0.6-0.5 1.2-0.9 1.8-1.3 1.8-3.4 3-5.7 3-3.9 0-7-3.1-7-7s3.1-7 7-7 7 3.1 7 7C32 70.8 31.9 71.5 31.6 72.2zM55 92c-3.9 0-7-3.1-7-7 0-0.8 0.1-1.5 0.4-2.2 0.2-0.6 0.5-1.2 0.9-1.8 1.3-1.8 3.4-3 5.7-3 2.1 0 3.9 0.9 5.2 2.3 0.4 0.5 0.8 1.1 1.1 1.7 0.4 0.9 0.7 1.9 0.7 3C62 88.9 58.9 92 55 92zM78 40c0-0.9 0.2-1.8 0.5-2.6 0.2-0.6 0.6-1.2 1-1.7 1.3-1.6 3.3-2.7 5.5-2.7 3.9 0 7 3.1 7 7 0 3.5-2.6 6.4-6 6.9-0.3 0-0.7 0.1-1 0.1s-0.7 0-1-0.1C80.6 46.4 78 43.5 78 40zM85 72c-2.1 0-3.9-0.9-5.2-2.3-0.4-0.5-0.8-1.1-1.1-1.7-0.4-0.9-0.7-1.9-0.7-3 0-3.5 2.6-6.4 6-6.9 0.3 0 0.7-0.1 1-0.1s0.7 0 1 0.1c3.4 0.5 6 3.4 6 6.9C92 68.9 88.9 72 85 72z" fill="#ed2647" data-fill-palette-color="accent"></path><path d="M25 65c-2.8 0-5 2.2-5 5s2.2 5 5 5 5-2.2 5-5S27.8 65 25 65zM25 73c-1.7 0-3-1.3-3-3s1.3-3 3-3 3 1.3 3 3S26.7 73 25 73z" fill="#ed2647" data-fill-palette-color="accent"></path></g></g></g></svg></g></svg></g></svg></g></svg></g></svg></g></svg></g><defs></defs></svg><rect width="95.481" height="91.72364583333332" fill="none" stroke="none" visibility="hidden"></rect></g></svg></g></svg>